# xmcd
#
# Track frame offsets:
#	150
#	17685
#	39617
#	61707
#	83196
#	90398
#	115810
#	135707
#	155857
#	174756
#	198543
#	223153
#	242085
#	266489
#	273889
#	294771
#
# Disc length: 4260 seconds
#
# Revision: 1
# Processed by: cddbd v1.5PL3 Copyright (c) Steve Scherf et al.
# Submitted via: MusicWizard 6.0.2
#
DISCID=d910a210
DTITLE=Montell Jordan - Let's Ride
DYEAR=1900
DGENRE=R&B
TTITLE0=When You Get Home
TTITLE1=Don't Call Me
TTITLE2=Let's Ride
TTITLE3=I Can Do That
TTITLE4=Midnight Rain
TTITLE5=One Last Chance
TTITLE6=Anything And Everything
TTITLE7=Body Ah
TTITLE8=Irresistible
TTITLE9=Let's Ride (Master P. Remix)
TTITLE10=Can I?
TTITLE11=Missing You
TTITLE12=The Longest Night
TTITLE13=I Say Yes Interlude
TTITLE14=4 You
TTITLE15=I Say Yes
EXTD=
EXTT0=
EXTT1=
EXTT2=
EXTT3=
EXTT4=
EXTT5=
EXTT6=
EXTT7=
EXTT8=
EXTT9=
EXTT10=
EXTT11=
EXTT12=
EXTT13=
EXTT14=
EXTT15=
PLAYORDER=
